# AST/ASF file generated using VICON BodyLanguage
# -----------------------------------------------
:version 1.10
:name VICON
:units
  mass 1.0
  length 0.45
  angle deg
:documentation
   .ast/.asf automatically generated from VICON data using
   VICON BodyBuilder and BodyLanguage model FoxedUp or BRILLIANT.MOD
:root
   order TX TY TZ RX RY RZ
   axis XYZ
   position 0 0 0  
   orientation 0 0 0 
:bonedata
  begin
     id 1 
     name lhipjoint
     direction 0.523584 -0.783993 0.333487 
     length 2.44404 
     axis 0 0 0  XYZ
  end
  begin
     id 2 
     name lfemur
     direction 0.34202 -0.939693 0  
     length 7.29523  
     axis 0 0 20  XYZ
    dof rx ry rz
    limits (-160.0 20.0)
           (-70.0 70.0)
           (-60.0 70.0)
  end
  begin
     id 3 
     name ltibia
     direction 0.34215 -0.939645 0   
     length 7.81194   
     axis 0 0 20   XYZ
    dof rx
    limits (-10.0 170.0)
  end
  begin
     id 4 
     name lfoot
     direction 0.0941847 -0.25877 0.961336   
     length 2.41437   
     axis -90 7.62852e-016 20   XYZ
    dof rx rz
    limits (-45.0 90.0)
           (-70.0 20.0)
  end
  begin
     id 5 
     name ltoes
     direction 1.53526e-011 -4.21768e-011 1   
     length 1.2048   
     axis -90 7.62852e-016 20   XYZ
    dof rx
    limits (-90.0 20.0)
  end
  begin
     id 6 
     name rhipjoint
     direction -0.46599 -0.814191 0.346332   
     length 2.35339  
     axis 0 0 0  XYZ 
  end
  begin
     id 7 
     name rfemur
     direction -0.34202 -0.939693 0   
     length 7.34966   
     axis 0 0 -20   XYZ
    dof rx ry rz
    limits (-160.0 20.0)
           (-70.0 70.0)
           (-70.0 60.0)
  end
  begin
     id 8 
     name rtibia
     direction -0.34202 -0.939693 0   
     length 7.89934   
     axis 0 0 -20   XYZ
    dof rx
    limits (-10.0 170.0)
 end
 begin
     id 9 
     name rfoot
     direction -0.0975468 -0.268008 0.958466   
     length 2.27725  
     axis -90 -7.62852e-016 -20   XYZ
    dof rx rz
    limits (-45.0 90.0)
           (-20.0 70.0)
  end
  begin
     id 10 
     name rtoes
     direction -1.53563e-011 -4.22022e-011 1   
     length 1.13683   
     axis -90 -7.62852e-016 -20   XYZ
    dof rx
    limits (-90.0 20.0)
  end
  begin
     id 11 
     name lowerback
     direction -0.00456414 0.999242 -0.0386661   
     length 2.16968   
     axis 0 0 0   XYZ
    dof rx ry rz
    limits (-20.0 45.0)
           (-30.0 30.0)
           (-30.0 30.0)
  end
  begin
     id 12 
     name upperback
     direction 0.0297078 0.998988 0.0337799   
     length 2.15674   
     axis 0 0 0   XYZ
    dof rx ry rz
    limits (-20.0 45.0)
           (-30.0 30.0)
           (-30.0 30.0)
  end
  begin
     id 13 
     name thorax
     direction 0.0309305 0.998202 0.0513506   
     length 2.16319   
     axis 0 0 0   XYZ
    dof rx ry rz
    limits (-20.0 45.0)
           (-30.0 30.0)
           (-30.0 30.0)
  end
  begin
     id 14 
     name lowerneck
     direction -0.103039 0.983474 0.148872   
     length 1.64318   
     axis 0 0 0   XYZ
    dof rx ry rz
    limits (-20.0 45.0)
           (-30.0 30.0)
           (-30.0 30.0)
  end
  begin
     id 15 
     name upperneck
     direction 0.128124 0.971079 -0.201469   
     length 1.68242   
     axis 0 0 0   XYZ
    dof rx ry rz
    limits (-20.0 45.0)
           (-30.0 30.0)
           (-30.0 30.0)
  end
  begin
     id 16
     name head
     direction 0.0496365 0.994919 -0.0875941  
     length 1.70108  
     axis 0 0 0   XYZ
    dof rx ry rz
    limits (-20.0 45.0)
           (-30.0 30.0)
           (-30.0 30.0)
  end
  begin
     id 17 
     name lclavicle
     direction 0.887148 0.430222 -0.166967  
     length 3.25763  
     axis 0 0 0   XYZ
    dof ry rz
    limits (-20.0 10.0)
           (0.0 20.0)
  end
  begin
     id 18 
     name lhumerus
     direction 1 -4.48962e-011 1.92156e-027   
     length 5.10755   
     axis 180 -30 -90   XYZ
    dof rx ry rz
    limits (-60.0 90.0)
           (-90.0 90.0)
           (-90.0 90.0)
  end
  begin
     id 19
     name lradius
     direction 1 -4.48958e-011 7.10963e-027   
     length 3.36253   
     axis 180 -30 -90   XYZ
    dof rx
    limits (-10.0 170.0)
  end
  begin
     id 20
     name lwrist
     direction 1 -4.48946e-011 1.82396e-026   
     length 1.68127   
     axis -1.15222e-014 90 90   XYZ
    dof ry
    limits (-180.0 0.0)
 end
  begin
     id 21 
     name lhand
     direction 1 -4.48919e-011 3.64759e-026   
     length 0.619088   
     axis -2.32787e-014 90 90   XYZ
    dof rx rz
    limits (-90.0 90.0)
           (-45.0 45.0)
  end
  begin
     id 22 
     name lfingers
     direction 1 -4.49012e-011 7.29744e-026   
     length 0.499125   
     axis -4.6558e-014 90 90   XYZ
    dof rx
    limits (0.0 90.0)
  end
  begin
     id 23
     name lthumb
     direction 0.707107 -6.35028e-011 0.707107   
     length 0.716646   
     axis -90 45 3.78391e-014   XYZ
    dof rx rz
    limits (-45.0 45.0)
           (-45.0 45.0)
  end
  begin
     id 24 
     name rclavicle
     direction -0.82886 0.533198 -0.169384   
     length 3.20647  
     axis 0 0 0   XYZ 
    dof ry rz
    limits (-10.0 20.0)
           (-20.0 0.0)
  end
  begin
     id 25 
     name rhumerus
     direction -1 -4.48973e-011 3.06863e-027  
     length 5.27387   
     axis 180 30 90   XYZ
    dof rx ry rz
    limits (-90.0 60.0)
           (-90.0 90.0)
           (-90.0 90.0)
  end
  begin
     id 26 
     name rradius
     direction -1 -4.48988e-011 9.4797e-027   
     length 3.40144   
     axis 180 30 90   XYZ
    dof rx
    limits (-10.0 170.0)
  end
  begin
     id 27 
     name rwrist
     direction -1 -4.48897e-011 1.82366e-026   
     length 1.70072   
     axis -1.15222e-014 -90 -90   XYZ
    dof ry
    limits (-180.0 0.0)
  end
  begin
     id 28
     name rhand
     direction -1 -4.48965e-011 3.64815e-026   
     length 0.742821   
     axis -2.32787e-014 -90 -90   XYZ
    dof rx rz
    limits (-90.0 90.0)
           (-45.0 45.0)
  end
  begin
     id 29
     name rfingers
     direction -1 -4.49016e-011 7.29754e-026   
     length 0.598881   
     axis -4.6558e-014 -90 -90   XYZ
    dof rx
    limits (0.0 90.0)
  end
  begin
     id 30
     name rthumb
     direction -0.707107 -6.3488e-011 0.707107   
     length 0.859877   
     axis -90 -45 -3.78391e-014   XYZ
    dof rx rz
    limits (-45.0 45.0)
           (-45.0 45.0)
  end
:hierarchy
  begin
    root lhipjoint rhipjoint lowerback
    lhipjoint lfemur
    lfemur ltibia
    ltibia lfoot
    lfoot ltoes
    rhipjoint rfemur
    rfemur rtibia
    rtibia rfoot
    rfoot rtoes
    lowerback upperback
    upperback thorax
    thorax lowerneck lclavicle rclavicle
    lowerneck upperneck
    upperneck head
    lclavicle lhumerus
    lhumerus lradius
    lradius lwrist
    lwrist lhand lthumb
    lhand lfingers
    rclavicle rhumerus
    rhumerus rradius
    rradius rwrist
    rwrist rhand rthumb
    rhand rfingers
  end

#!OML:ASF F:\Work\Patient Classification 1\justin\Session 1\justin.ASF
:FULLY-SPECIFIED
:DEGREES
2521
root -9.16192 17.9605 2.4504 358.788 -173.483 -355.652
lowerback 12.5602 0.918056 1.46675
upperback 1.8468 1.28918 4.06876
thorax -5.16418 0.488749 3.24795
lowerneck -10.6505 -6.11008 -19.249
upperneck 32.2005 -11.8182 11.2495
head 14.7304 -7.21596 5.77531
rclavicle -3.47873e-015 -1.98785e-014
rhumerus -28.3923 -1.63971 -82.1074
rradius 40.8974
rwrist -4.94446
rhand -22.0385 13.4937
rfingers 7.12502
rthumb 4.3716 -16.4411
lclavicle -3.47873e-015 -1.98785e-014
lhumerus -39.0158 7.19828 86.1957
lradius 40.499
lwrist 2.71624
lhand -14.099 27.0618
lfingers 7.12502
lthumb 12.0336 56.6958
rfemur 3.37805 7.52073 31.1872
rtibia 21.2061
rfoot -18.1801 -3.63027
rtoes -4.2373
lfemur -24.5478 -5.63493 -8.04078
ltibia 31.1618
lfoot -12.3773 0.142151
ltoes -24.7303
2522
root -9.18879 17.9582 2.3383 358.952 -173.723 -356.047
lowerback 12.3252 0.908073 1.08063
upperback 1.94086 1.2158 3.9442
thorax -4.93747 0.462505 3.3463
lowerneck -10.611 -6.14734 -19.2753
upperneck 31.8411 -11.8033 11.3944
head 14.5673 -7.16532 5.83776
rclavicle 2.38542e-015 -2.70347e-014
rhumerus -28.0197 -1.22693 -82.3805
rradius 40.8711
rwrist -4.98641
rhand -22.0108 13.5849
rfingers 7.12502
rthumb 4.39831 -16.3495
lclavicle 2.38542e-015 -2.70347e-014
lhumerus -38.5166 7.15866 86.2281
lradius 40.421
lwrist 3.11165
lhand -14.7489 25.9791
lfingers 7.12502
lthumb 11.4069 55.6488
rfemur 3.96268 7.50458 30.7202
rtibia 20.7022
rfoot -18.1127 -3.37079
rtoes -2.49357
lfemur -24.7175 -5.90926 -8.31504
ltibia 29.5593
lfoot -12.6864 -0.351501
ltoes -24.6483
2523
root -9.21847 17.9551 2.22819 359.099 -174.109 -356.412
lowerback 12.1757 0.934909 0.779369
upperback 1.96963 1.21266 3.79758
thorax -4.82784 0.470661 3.362
lowerneck -10.1238 -6.16116 -19.4584
upperneck 31.2367 -11.8486 11.7082
head 14.2323 -7.15385 5.99261
rclavicle -1.09332e-015 -3.57812e-014
rhumerus -27.9176 -1.01243 -82.6316
rradius 41.1633
rwrist -4.68527
rhand -21.8916 13.228
rfingers 7.12502
rthumb 4.51345 -16.7039
lclavicle -1.09332e-015 -3.57812e-014
lhumerus -38.0639 7.12097 86.2031
lradius 40.1163
lwrist 3.31565
lhand -15.1261 25.2278
lfingers 7.12502
lthumb 11.0431 54.9173
rfemur 4.51596 7.6009 30.2609
rtibia 20.2612
rfoot -18.5149 -3.24087
rtoes -3.63682
lfemur -24.8753 -5.80348 -8.65394
ltibia 28.2542
lfoot -12.8527 -1.12383
ltoes -23.9994
2524
root -9.25078 17.9478 2.0978 359.02 -174.427 -356.629
lowerback 11.8896 0.94765 0.639687
upperback 2.10293 1.19516 3.70419
thorax -4.52957 0.462166 3.34485
lowerneck -9.96469 -6.18231 -19.5692
upperneck 30.9811 -11.9044 11.9178
head 14.1192 -7.16046 6.08818
rclavicle 5.46658e-015 3.89618e-014
rhumerus -27.9475 -0.813643 -82.8242
rradius 41.513
rwrist -4.53789
rhand -21.8103 13.5366
rfingers 7.12502
rthumb 4.59195 -16.3936
lclavicle 5.46658e-015 3.89618e-014
lhumerus -37.7233 7.0349 86.1936
lradius 40.0232
lwrist 3.15705
lhand -14.9636 25.2343
lfingers 7.12502
lthumb 11.1999 54.9154
rfemur 5.4126 7.75733 30.0384
rtibia 19.8246
rfoot -18.6662 -3.18172
rtoes -3.38062
lfemur -24.7245 -5.50769 -8.96058
ltibia 27.2733
lfoot -12.9435 -2.13748
ltoes -23.6381
2525
root -9.28216 17.94 1.96956 358.978 -175.072 -356.83
lowerback 11.6227 1.04724 0.409032
upperback 2.20135 1.28818 3.64183
thorax -4.28791 0.510371 3.39569
lowerneck -9.99642 -6.14889 -19.5394
upperneck 30.9567 -11.8442 11.9016
head 14.0984 -7.13186 6.08504
rclavicle 1.61016e-014 -1.19271e-014
rhumerus -27.9583 -0.468931 -83.0312
rradius 41.7249
rwrist -4.55354
rhand -21.661 13.777
rfingers 7.12502
rthumb 4.73607 -16.1501
lclavicle 1.61016e-014 -1.19271e-014
lhumerus -37.6295 6.86332 86.2408
lradius 40.212
lwrist 3.27847
lhand -14.937 25.7988
lfingers 7.12502
lthumb 11.2255 55.4784
rfemur 6.31251 8.14722 29.8269
rtibia 19.3197
rfoot -18.3871 -3.05841
rtoes -3.02928
lfemur -24.6177 -5.03518 -9.22103
ltibia 26.6118
lfoot -13.0892 -2.92198
ltoes -23.599
2526
root -9.30613 17.9307 1.84912 358.956 -175.459 -356.954
lowerback 11.6366 1.04346 0.200236
upperback 2.1078 1.27116 3.6062
thorax -4.39681 0.511011 3.47926
lowerneck -9.56532 -6.00596 -19.5856
upperneck 30.8313 -11.749 11.9363
head 13.93 -7.12071 6.13148
rclavicle 7.05686e-015 4.77083e-015
rhumerus -28.139 -0.117531 -83.2739
rradius 41.7977
rwrist -4.54634
rhand -21.6745 13.8761
rfingers 7.12502
rthumb 4.72307 -16.0513
lclavicle 7.05686e-015 4.77083e-015
lhumerus -37.8308 6.6881 86.2145
lradius 40.4733
lwrist 3.3633
lhand -14.8392 26.3608
lfingers 7.12502
lthumb 11.3198 56.0353
rfemur 7.0548 8.51813 29.811
rtibia 18.9188
rfoot -18.4928 -3.53337
rtoes -5.73725
lfemur -24.7179 -4.57109 -9.38511
ltibia 26.1737
lfoot -13.0499 -4.08732
ltoes -22.5257
2527
root -9.32967 17.9209 1.73129 358.9 -175.7 -357.138
lowerback 11.7491 1.02579 -0.022006
upperback 2.0177 1.2342 3.53275
thorax -4.5547 0.502694 3.53343
lowerneck -9.40511 -5.93372 -19.6555
upperneck 30.9133 -11.7861 12.0708
head 13.9516 -7.1617 6.19949
rclavicle 1.27222e-014 2.54444e-014
rhumerus -28.2736 0.152829 -83.5141
rradius 41.6936
rwrist -4.36377
rhand -22.0365 14.511
rfingers 7.12502
rthumb 4.37348 -15.4238
lclavicle 1.27222e-014 2.54444e-014
lhumerus -37.8406 6.50993 86.153
lradius 40.5403
lwrist 3.28737
lhand -14.4457 26.7563
lfingers 7.12502
lthumb 11.6993 56.4096
rfemur 7.63878 8.73426 29.7233
rtibia 18.8164
rfoot -18.3843 -3.85154
rtoes -7.19265
lfemur -24.7403 -4.04394 -9.67168
ltibia 25.8793
lfoot -12.7898 -5.6208
ltoes -21.7825
2528
root -9.35982 17.9098 1.61765 358.862 -175.98 -357.413
lowerback 11.819 1.02356 -0.24289
upperback 1.97975 1.21133 3.40563
thorax -4.63381 0.499957 3.52792
lowerneck -9.60482 -5.9259 -19.5216
upperneck 31.1408 -11.7964 11.9566
head 14.0791 -7.17497 6.12564
rclavicle -5.56597e-015 -6.36111e-015
rhumerus -28.4312 0.350971 -83.7342
rradius 41.7996
rwrist -4.10092
rhand -22.0737 14.7217
rfingers 7.12502
rthumb 4.33761 -15.2139
lclavicle -5.56597e-015 -6.36111e-015
lhumerus -37.8071 6.24314 86.139
lradius 40.7351
lwrist 3.44286
lhand -14.3613 27.0317
lfingers 7.12502
lthumb 11.7807 56.6804
rfemur 8.04002 8.81882 29.418
rtibia 18.9637
rfoot -18.7472 -3.85533
rtoes -8.17439
lfemur -24.6206 -3.65102 -10.0829
ltibia 25.7227
lfoot -12.4346 -6.97077
ltoes -22.7417
2529
root -9.39471 17.8923 1.5075 358.831 -176.286 -357.58
lowerback 11.8995 1.00087 -0.310443
upperback 1.98312 1.17241 3.31803
thorax -4.67185 0.482802 3.47964
lowerneck -9.68275 -5.87471 -19.3453
upperneck 31.1641 -11.6548 11.7227
head 14.0451 -7.11396 6.01861
rclavicle -3.27995e-015 5.56597e-015
rhumerus -28.4542 0.572022 -83.9118
rradius 42.1201
rwrist -4.00985
rhand -21.616 13.8841
rfingers 7.12502
rthumb 4.77954 -16.042
lclavicle -3.27995e-015 5.56597e-015
lhumerus -37.6447 6.1643 86.1301
lradius 40.6398
lwrist 3.69748
lhand -14.6414 26.9383
lfingers 7.12502
lthumb 11.5106 56.6023
rfemur 8.30985 8.87468 29.1787
rtibia 19.3267
rfoot -18.9564 -3.7557
rtoes -8.93761
lfemur -24.3939 -3.48639 -10.3498
ltibia 25.7018
lfoot -11.8444 -8.04408
ltoes -23.84
2530
root -9.42623 17.8706 1.38815 358.699 -176.643 -357.628
lowerback 12.0544 1.00961 -0.320738
upperback 2.02017 1.17718 3.2745
thorax -4.71817 0.483076 3.4384
lowerneck -9.77424 -5.88821 -19.3528
upperneck 31.1584 -11.6563 11.7357
head 14.0648 -7.11028 6.02208
rclavicle 1.39149e-015 -1.35174e-014
rhumerus -28.3261 0.727627 -84.0706
rradius 42.0734
rwrist -3.82546
rhand -21.4021 13.6143
rfingers 7.12502
rthumb 4.98613 -16.3071
lclavicle 1.39149e-015 -1.35174e-014
lhumerus -37.2759 6.24585 86.0433
lradius 40.0459
lwrist 3.53421
lhand -15.161 25.7078
lfingers 7.12502
lthumb 11.0095 55.3991
rfemur 8.69243 9.13956 29.1713
rtibia 19.811
rfoot -19.1481 -3.82916
rtoes -9.17902
lfemur -23.96 -3.31181 -10.4705
ltibia 25.845
lfoot -11.1514 -8.96816
ltoes -24.6619
2531
root -9.45336 17.8473 1.26024 358.498 -177.048 -357.6
lowerback 12.1562 1.05093 -0.321791
upperback 2.07705 1.22417 3.24059
thorax -4.71695 0.502907 3.39528
lowerneck -9.95454 -5.94117 -19.291
upperneck 31.2654 -11.752 11.7416
head 14.1685 -7.1462 5.9936
rclavicle -1.63003e-014 -1.74931e-014
rhumerus -28.4447 0.723774 -84.2273
rradius 41.9351
rwrist -3.50797
rhand -21.4519 14.4774
rfingers 7.12502
rthumb 4.93802 -15.4451
lclavicle -1.63003e-014 -1.74931e-014
lhumerus -37.0981 6.11763 85.9822
lradius 40.078
lwrist 3.11664
lhand -15.6094 24.7007
lfingers 7.12502
lthumb 10.577 54.4145
rfemur 9.17201 9.59132 29.3342
rtibia 20.2976
rfoot -19.3141 -4.00858
rtoes -9.23309
lfemur -23.3897 -3.16098 -10.4776
ltibia 26.1724
lfoot -10.4181 -9.61898
ltoes -26.067
2532
root -9.48811 17.8254 1.13267 358.35 -177.341 -357.651
lowerback 12.127 1.02313 -0.328577
upperback 2.10347 1.18255 3.19834
thorax -4.66963 0.481369 3.36122
lowerneck -9.87594 -5.8734 -19.21
upperneck 31.3005 -11.6907 11.6551
head 14.1392 -7.13388 5.95546
rclavicle -8.64713e-015 -3.4191e-014
rhumerus -28.7359 0.715513 -84.3383
rradius 41.9938
rwrist -3.1312
rhand -21.3907 14.8817
rfingers 7.12502
rthumb 4.9971 -15.0394
lclavicle -8.64713e-015 -3.4191e-014
lhumerus -37.0512 6.01668 85.9873
lradius 40.3758
lwrist 2.6618
lhand -15.4941 25.0649
lfingers 7.12502
lthumb 10.6882 54.773
rfemur 9.58966 9.83546 29.3056
rtibia 20.7853
rfoot -19.3622 -3.99128
rtoes -10.7462
lfemur -22.8794 -3.29364 -10.5652
ltibia 26.6568
lfoot -9.48102 -10.0132
ltoes -26.8715
2533
root -9.5302 17.8125 1.00627 358.293 -177.439 -357.815
lowerback 12.0437 0.892459 -0.369973
upperback 2.03985 1.01072 3.13853
thorax -4.67932 0.401681 3.34928
lowerneck -9.64134 -5.73515 -19.3906
upperneck 31.349 -11.6206 11.8079
head 14.1161 -7.14328 6.07083
rclavicle 1.37161e-014 3.02153e-014
rhumerus -28.8965 0.799069 -84.4323
rradius 41.7931
rwrist -2.72849
rhand -21.2405 14.4498
rfingers 7.12502
rthumb 5.14217 -15.4678
lclavicle 1.37161e-014 3.02153e-014
lhumerus -37.0506 6.14626 85.9423
lradius 40.2911
lwrist 2.16742
lhand -14.8978 26.3548
lfingers 7.12502
lthumb 11.2633 56.0325
rfemur 9.89191 9.83473 29.0466
rtibia 21.2905
rfoot -19.2854 -3.81575
rtoes -14.0263
lfemur -22.5259 -3.65918 -10.8059
ltibia 27.241
lfoot -8.61566 -10.2238
ltoes -26.8142
